<svg xmlns="http://www.w3.org/2000/svg" xmlns:xlink="http://www.w3.org/1999/xlink" width="150" zoomAndPan="magnify" viewBox="0 0 112.5 37.5" height="50" preserveAspectRatio="xMidYMid meet" version="1.0"><defs><g/><clipPath id="9263476b31"><path d="M 20 3 L 39 3 L 39 33 L 20 33 Z M 20 3 " clip-rule="nonzero"/></clipPath><clipPath id="50c67b6547"><path d="M 11.714844 19.808594 L 37.261719 2.976562 L 46.378906 16.816406 L 20.832031 33.648438 Z M 11.714844 19.808594 " clip-rule="nonzero"/></clipPath><clipPath id="d43498076d"><path d="M 11.714844 19.808594 L 37.261719 2.976562 L 46.378906 16.816406 L 20.832031 33.648438 Z M 11.714844 19.808594 " clip-rule="nonzero"/></clipPath></defs><g fill="#000000" fill-opacity="1"><g transform="translate(60.543156, 21.375821)"><g><path d="M 2.40625 0.078125 C 1.800781 0.078125 1.304688 -0.113281 0.921875 -0.5 C 0.535156 -0.882812 0.34375 -1.390625 0.34375 -2.015625 C 0.34375 -2.648438 0.535156 -3.160156 0.921875 -3.546875 C 1.304688 -3.929688 1.816406 -4.125 2.453125 -4.125 C 2.960938 -4.125 3.414062 -3.992188 3.8125 -3.734375 L 3.9375 -2.921875 L 3.875 -2.921875 C 3.789062 -3.253906 3.617188 -3.507812 3.359375 -3.6875 C 3.109375 -3.863281 2.804688 -3.953125 2.453125 -3.953125 C 1.941406 -3.953125 1.535156 -3.773438 1.234375 -3.421875 C 0.929688 -3.078125 0.78125 -2.613281 0.78125 -2.03125 C 0.78125 -1.457031 0.925781 -0.992188 1.21875 -0.640625 C 1.519531 -0.285156 1.914062 -0.101562 2.40625 -0.09375 C 2.84375 -0.09375 3.203125 -0.207031 3.484375 -0.4375 C 3.796875 -0.695312 3.988281 -1.113281 4.0625 -1.6875 L 4.109375 -1.6875 L 4.03125 -0.78125 C 3.6875 -0.207031 3.144531 0.078125 2.40625 0.078125 Z M 2.40625 0.078125 "/></g></g></g><g fill="#000000" fill-opacity="1"><g transform="translate(69.262112, 21.375821)"><g><path d="M 1.53125 -0.0625 L 1.609375 -0.0625 L 1.609375 0 L 0.34375 0 L 0.34375 -0.0625 L 0.421875 -0.0625 C 0.523438 -0.0625 0.609375 -0.09375 0.671875 -0.15625 C 0.742188 -0.226562 0.785156 -0.316406 0.796875 -0.421875 L 0.796875 -3.625 C 0.785156 -3.726562 0.742188 -3.8125 0.671875 -3.875 C 0.609375 -3.945312 0.523438 -3.984375 0.421875 -3.984375 L 0.34375 -3.984375 L 0.34375 -4.046875 L 1.609375 -4.046875 L 1.609375 -3.984375 L 1.53125 -3.984375 C 1.4375 -3.984375 1.351562 -3.945312 1.28125 -3.875 C 1.207031 -3.8125 1.171875 -3.726562 1.171875 -3.625 L 1.171875 -0.421875 C 1.171875 -0.316406 1.207031 -0.226562 1.28125 -0.15625 C 1.351562 -0.09375 1.4375 -0.0625 1.53125 -0.0625 Z M 3.859375 0 L 3.609375 0 C 3.222656 0 2.9375 -0.109375 2.75 -0.328125 L 1.359375 -2.015625 L 2.71875 -3.71875 C 2.75 -3.757812 2.765625 -3.796875 2.765625 -3.828125 C 2.765625 -3.859375 2.757812 -3.882812 2.75 -3.90625 C 2.71875 -3.96875 2.660156 -4 2.578125 -4 L 2.515625 -4 L 2.515625 -4.046875 L 3.734375 -4.046875 L 3.734375 -4 L 3.71875 -4 C 3.457031 -4 3.25 -3.90625 3.09375 -3.71875 L 1.734375 -2.15625 L 3.3125 -0.296875 C 3.46875 -0.140625 3.648438 -0.0625 3.859375 -0.0625 Z M 3.859375 0 "/></g></g></g><g fill="#000000" fill-opacity="1"><g transform="translate(77.385138, 21.375821)"><g><path d="M 0.984375 -3.546875 C 1.367188 -3.929688 1.867188 -4.125 2.484375 -4.125 C 3.097656 -4.125 3.597656 -3.929688 3.984375 -3.546875 C 4.367188 -3.160156 4.5625 -2.648438 4.5625 -2.015625 C 4.5625 -1.390625 4.367188 -0.882812 3.984375 -0.5 C 3.597656 -0.113281 3.097656 0.078125 2.484375 0.078125 C 1.867188 0.078125 1.367188 -0.113281 0.984375 -0.5 C 0.597656 -0.882812 0.40625 -1.390625 0.40625 -2.015625 C 0.40625 -2.648438 0.597656 -3.160156 0.984375 -3.546875 Z M 1.296875 -0.625 C 1.597656 -0.269531 1.992188 -0.09375 2.484375 -0.09375 C 2.972656 -0.09375 3.363281 -0.269531 3.65625 -0.625 C 3.957031 -0.976562 4.109375 -1.441406 4.109375 -2.015625 C 4.109375 -2.398438 4.039062 -2.738281 3.90625 -3.03125 C 3.78125 -3.320312 3.59375 -3.546875 3.34375 -3.703125 C 3.09375 -3.867188 2.804688 -3.953125 2.484375 -3.953125 C 1.992188 -3.953125 1.597656 -3.773438 1.296875 -3.421875 C 0.992188 -3.066406 0.84375 -2.597656 0.84375 -2.015625 C 0.84375 -1.441406 0.992188 -0.976562 1.296875 -0.625 Z M 1.296875 -0.625 "/></g></g></g><g fill="#000000" fill-opacity="1"><g transform="translate(86.555374, 21.375821)"><g><path d="M 2.3125 -4.046875 C 2.925781 -4.046875 3.421875 -3.859375 3.796875 -3.484375 C 4.179688 -3.117188 4.375 -2.628906 4.375 -2.015625 C 4.375 -1.410156 4.179688 -0.921875 3.796875 -0.546875 C 3.421875 -0.179688 2.925781 0 2.3125 0 L 0.34375 0 L 0.34375 -0.0625 L 0.421875 -0.0625 C 0.523438 -0.0625 0.609375 -0.09375 0.671875 -0.15625 C 0.742188 -0.226562 0.785156 -0.316406 0.796875 -0.421875 L 0.796875 -3.65625 C 0.796875 -3.75 0.753906 -3.828125 0.671875 -3.890625 C 0.597656 -3.953125 0.515625 -3.984375 0.421875 -3.984375 L 0.359375 -3.984375 L 0.34375 -4.046875 Z M 1.171875 -3.875 L 1.171875 -0.171875 L 2.3125 -0.171875 C 2.632812 -0.171875 2.914062 -0.25 3.15625 -0.40625 C 3.40625 -0.5625 3.597656 -0.773438 3.734375 -1.046875 C 3.878906 -1.328125 3.953125 -1.648438 3.953125 -2.015625 C 3.953125 -2.578125 3.800781 -3.023438 3.5 -3.359375 C 3.195312 -3.703125 2.800781 -3.875 2.3125 -3.875 Z M 1.171875 -3.875 "/></g></g></g><g fill="#000000" fill-opacity="1"><g transform="translate(95.546252, 21.375821)"><g><path d="M 0.421875 -0.0625 C 0.523438 -0.0625 0.609375 -0.09375 0.671875 -0.15625 C 0.742188 -0.226562 0.785156 -0.316406 0.796875 -0.421875 L 0.796875 -3.65625 C 0.785156 -3.75 0.742188 -3.828125 0.671875 -3.890625 C 0.597656 -3.953125 0.515625 -3.984375 0.421875 -3.984375 L 0.359375 -3.984375 L 0.34375 -4.046875 L 2.046875 -4.046875 C 2.160156 -4.046875 2.285156 -4.054688 2.421875 -4.078125 C 2.566406 -4.097656 2.671875 -4.125 2.734375 -4.15625 L 2.734375 -3.421875 L 2.671875 -3.421875 L 2.671875 -3.53125 C 2.671875 -3.625 2.640625 -3.703125 2.578125 -3.765625 C 2.515625 -3.828125 2.4375 -3.863281 2.34375 -3.875 L 1.171875 -3.875 L 1.171875 -2.078125 L 2.140625 -2.078125 C 2.222656 -2.085938 2.289062 -2.117188 2.34375 -2.171875 C 2.394531 -2.222656 2.421875 -2.289062 2.421875 -2.375 L 2.421875 -2.453125 L 2.484375 -2.453125 L 2.484375 -1.53125 L 2.421875 -1.53125 L 2.421875 -1.625 C 2.421875 -1.695312 2.394531 -1.757812 2.34375 -1.8125 C 2.289062 -1.875 2.226562 -1.90625 2.15625 -1.90625 L 1.171875 -1.90625 L 1.171875 -0.171875 L 2 -0.171875 C 2.28125 -0.171875 2.492188 -0.234375 2.640625 -0.359375 C 2.796875 -0.492188 2.925781 -0.6875 3.03125 -0.9375 L 3.078125 -0.9375 L 2.75 0 L 0.34375 0 L 0.34375 -0.0625 Z M 0.421875 -0.0625 "/></g></g></g><g fill="#000000" fill-opacity="1"><g transform="translate(103.206424, 21.375821)"><g><path d="M 0.359375 -0.234375 C 0.335938 -0.285156 0.328125 -0.390625 0.328125 -0.546875 C 0.328125 -0.703125 0.359375 -0.867188 0.421875 -1.046875 L 0.46875 -1.046875 C 0.46875 -1.003906 0.46875 -0.957031 0.46875 -0.90625 C 0.46875 -0.675781 0.535156 -0.484375 0.671875 -0.328125 C 0.816406 -0.171875 1.007812 -0.09375 1.25 -0.09375 C 1.488281 -0.09375 1.6875 -0.164062 1.84375 -0.3125 C 2 -0.457031 2.078125 -0.640625 2.078125 -0.859375 C 2.078125 -1.085938 2.003906 -1.269531 1.859375 -1.40625 L 0.75 -2.4375 C 0.539062 -2.625 0.4375 -2.851562 0.4375 -3.125 C 0.4375 -3.40625 0.523438 -3.640625 0.703125 -3.828125 C 0.890625 -4.023438 1.140625 -4.125 1.453125 -4.125 C 1.597656 -4.125 1.765625 -4.101562 1.953125 -4.0625 L 2.171875 -4.0625 L 2.171875 -3.359375 L 2.125 -3.359375 C 2.125 -3.535156 2.0625 -3.675781 1.9375 -3.78125 C 1.8125 -3.894531 1.648438 -3.953125 1.453125 -3.953125 C 1.253906 -3.953125 1.085938 -3.882812 0.953125 -3.75 C 0.816406 -3.625 0.75 -3.460938 0.75 -3.265625 C 0.75 -3.066406 0.828125 -2.894531 0.984375 -2.75 L 2.125 -1.703125 C 2.320312 -1.523438 2.421875 -1.28125 2.421875 -0.96875 C 2.421875 -0.664062 2.320312 -0.414062 2.125 -0.21875 C 1.925781 -0.0195312 1.660156 0.078125 1.328125 0.078125 C 1.160156 0.078125 0.984375 0.0507812 0.796875 0 C 0.609375 -0.0507812 0.460938 -0.128906 0.359375 -0.234375 Z M 0.359375 -0.234375 "/></g></g></g><g clip-path="url(#9263476b31)"><g clip-path="url(#50c67b6547)"><g clip-path="url(#d43498076d)"><path fill="#000000" d="M 31.25 13.941406 C 27.105469 19.394531 23.714844 25.0625 21.160156 31.007812 C 20.347656 32.902344 21.113281 33.417969 22.4375 31.816406 C 27.234375 26.03125 30.8125 20.390625 33.542969 15.125 C 33.863281 14.960938 34.152344 14.753906 34.355469 14.273438 C 34.765625 13.308594 35.34375 12.242188 35.578125 11.347656 C 35.660156 11.046875 35.535156 10.914062 35.496094 10.71875 C 36.710938 10.558594 37.742188 9.460938 38.230469 8.324219 C 39.152344 6.183594 38.34375 4.609375 36.804688 3.3125 C 36.941406 4.550781 36.414062 5.527344 35.199219 6.433594 C 33.636719 7.605469 33.410156 8.914062 34.121094 10.117188 C 33.90625 10.140625 33.660156 10.199219 33.3125 10.609375 C 32.757812 11.257812 32.203125 11.914062 31.574219 12.757812 C 31.175781 13.292969 31.199219 13.640625 31.25 13.941406 Z M 32.082031 14.597656 C 32.410156 14.191406 33.15625 14.574219 32.886719 15.109375 C 30.171875 20.515625 26.621094 25.644531 22.695312 30.746094 C 21.769531 31.949219 21.785156 31.253906 22.203125 30.410156 C 25.023438 24.757812 28.21875 19.394531 32.082031 14.597656 Z M 32.511719 13.746094 C 32.378906 13.691406 32.339844 13.511719 32.492188 13.253906 C 33.011719 12.390625 33.546875 11.683594 34.183594 10.953125 C 34.644531 10.429688 35.222656 10.910156 35.007812 11.472656 C 34.679688 12.332031 34.195312 13.214844 33.632812 14.078125 C 33.527344 14.242188 33.300781 14.242188 33.113281 14.113281 C 32.914062 13.980469 32.734375 13.832031 32.511719 13.746094 Z M 34.59375 9.601562 C 34.375 8.902344 34.4375 8.160156 35.492188 7.230469 C 36.554688 6.300781 37.039062 5.46875 37.414062 4.660156 C 38.234375 6.355469 37.71875 8.1875 36.027344 9.886719 C 35.722656 10.191406 35.464844 9.96875 35.703125 9.648438 C 36.660156 8.34375 37.011719 7.375 37.144531 6.40625 C 36.6875 7.519531 36.148438 8.609375 35.070312 9.554688 C 35.175781 8.738281 35.546875 8.03125 35.996094 7.347656 C 35.328125 7.902344 34.804688 8.59375 34.59375 9.601562 Z M 34.59375 9.601562 " fill-opacity="1" fill-rule="evenodd"/></g></g></g><g fill="#000000" fill-opacity="1"><g transform="translate(40.287297, 26.540355)"><g><path d="M 0.96875 -12.625 L 10.65625 -8.015625 L 10.65625 -6.921875 L 0.96875 -2.3125 L 0.96875 -3.46875 L 9.21875 -7.484375 L 0.96875 -11.453125 Z M 0.96875 -12.625 "/></g></g></g><g fill="#000000" fill-opacity="1"><g transform="translate(5.592824, 25.462994)"><g><path d="M 10.65625 -12.625 L 10.65625 -11.453125 L 2.390625 -7.484375 L 10.65625 -3.46875 L 10.65625 -2.3125 L 0.96875 -6.921875 L 0.96875 -8.015625 Z M 10.65625 -12.625 "/></g></g></g></svg>