<svg xmlns="http://www.w3.org/2000/svg" xmlns:xlink="http://www.w3.org/1999/xlink" width="190" zoomAndPan="magnify" viewBox="0 0 142.5 37.5" height="50" preserveAspectRatio="xMidYMid meet" version="1.0"><defs><g/><clipPath id="4b8d1a3a4a"><path d="M 18 0 L 41 0 L 41 36 L 18 36 Z M 18 0 " clip-rule="nonzero"/></clipPath><clipPath id="b0efaaa4b5"><path d="M 7.722656 20.050781 L 38.699219 -0.355469 L 49.753906 16.421875 L 18.777344 36.832031 Z M 7.722656 20.050781 " clip-rule="nonzero"/></clipPath><clipPath id="abbed7f053"><path d="M 7.722656 20.050781 L 38.699219 -0.355469 L 49.753906 16.421875 L 18.777344 36.832031 Z M 7.722656 20.050781 " clip-rule="nonzero"/></clipPath></defs><g fill="#000000" fill-opacity="1"><g transform="translate(73.858755, 22.731527)"><g><path d="M 4.140625 0.140625 C 3.085938 0.128906 2.234375 -0.203125 1.578125 -0.859375 C 0.921875 -1.523438 0.59375 -2.394531 0.59375 -3.46875 C 0.59375 -4.550781 0.921875 -5.421875 1.578125 -6.078125 C 2.234375 -6.742188 3.109375 -7.078125 4.203125 -7.078125 C 5.085938 -7.078125 5.867188 -6.851562 6.546875 -6.40625 L 6.75 -5.015625 L 6.65625 -5.015625 C 6.507812 -5.578125 6.210938 -6.007812 5.765625 -6.3125 C 5.328125 -6.625 4.804688 -6.78125 4.203125 -6.78125 C 3.328125 -6.78125 2.628906 -6.476562 2.109375 -5.875 C 1.597656 -5.28125 1.34375 -4.484375 1.34375 -3.484375 C 1.34375 -2.492188 1.597656 -1.695312 2.109375 -1.09375 C 2.617188 -0.488281 3.296875 -0.175781 4.140625 -0.15625 C 4.878906 -0.15625 5.5 -0.359375 6 -0.765625 C 6.53125 -1.203125 6.851562 -1.910156 6.96875 -2.890625 L 7.046875 -2.890625 L 6.921875 -1.34375 C 6.316406 -0.351562 5.390625 0.140625 4.140625 0.140625 Z M 4.140625 0.140625 "/></g></g></g><g fill="#000000" fill-opacity="1"><g transform="translate(86.36194, 22.731527)"><g><path d="M 2.640625 -0.09375 L 2.765625 -0.09375 L 2.765625 0 L 0.59375 0 L 0.59375 -0.09375 L 0.71875 -0.09375 C 0.894531 -0.09375 1.039062 -0.15625 1.15625 -0.28125 C 1.28125 -0.40625 1.347656 -0.550781 1.359375 -0.71875 L 1.359375 -6.234375 C 1.347656 -6.398438 1.28125 -6.539062 1.15625 -6.65625 C 1.039062 -6.78125 0.894531 -6.84375 0.71875 -6.84375 L 0.59375 -6.84375 L 0.59375 -6.9375 L 2.765625 -6.9375 L 2.765625 -6.84375 L 2.640625 -6.84375 C 2.460938 -6.84375 2.3125 -6.78125 2.1875 -6.65625 C 2.070312 -6.539062 2.007812 -6.398438 2 -6.234375 L 2 -0.71875 C 2 -0.550781 2.0625 -0.40625 2.1875 -0.28125 C 2.3125 -0.15625 2.460938 -0.09375 2.640625 -0.09375 Z M 6.625 0 L 6.203125 0 C 5.523438 0 5.03125 -0.1875 4.71875 -0.5625 L 2.328125 -3.453125 L 4.65625 -6.390625 C 4.71875 -6.453125 4.75 -6.507812 4.75 -6.5625 C 4.75 -6.613281 4.738281 -6.660156 4.71875 -6.703125 C 4.664062 -6.804688 4.566406 -6.859375 4.421875 -6.859375 L 4.328125 -6.859375 L 4.328125 -6.9375 L 6.421875 -6.9375 L 6.421875 -6.859375 L 6.375 -6.859375 C 5.9375 -6.859375 5.582031 -6.703125 5.3125 -6.390625 L 2.96875 -3.6875 L 5.6875 -0.5 C 5.945312 -0.238281 6.257812 -0.101562 6.625 -0.09375 Z M 6.625 0 "/></g></g></g><g fill="#000000" fill-opacity="1"><g transform="translate(97.843125, 22.731527)"><g><path d="M 1.671875 -6.078125 C 2.335938 -6.742188 3.195312 -7.078125 4.25 -7.078125 C 5.3125 -7.078125 6.171875 -6.742188 6.828125 -6.078125 C 7.492188 -5.421875 7.828125 -4.550781 7.828125 -3.46875 C 7.828125 -2.394531 7.492188 -1.523438 6.828125 -0.859375 C 6.171875 -0.191406 5.3125 0.140625 4.25 0.140625 C 3.195312 0.140625 2.335938 -0.191406 1.671875 -0.859375 C 1.015625 -1.523438 0.6875 -2.394531 0.6875 -3.46875 C 0.6875 -4.550781 1.015625 -5.421875 1.671875 -6.078125 Z M 2.21875 -1.0625 C 2.738281 -0.457031 3.421875 -0.15625 4.265625 -0.15625 C 5.109375 -0.15625 5.785156 -0.457031 6.296875 -1.0625 C 6.804688 -1.675781 7.0625 -2.476562 7.0625 -3.46875 C 7.0625 -4.125 6.945312 -4.703125 6.71875 -5.203125 C 6.488281 -5.710938 6.160156 -6.101562 5.734375 -6.375 C 5.304688 -6.644531 4.8125 -6.78125 4.25 -6.78125 C 3.414062 -6.78125 2.738281 -6.472656 2.21875 -5.859375 C 1.707031 -5.253906 1.453125 -4.457031 1.453125 -3.46875 C 1.453125 -2.476562 1.707031 -1.675781 2.21875 -1.0625 Z M 2.21875 -1.0625 "/></g></g></g><g fill="#000000" fill-opacity="1"><g transform="translate(111.12025, 22.731527)"><g><path d="M 3.953125 -6.9375 C 5.015625 -6.9375 5.875 -6.617188 6.53125 -5.984375 C 7.1875 -5.347656 7.515625 -4.507812 7.515625 -3.46875 C 7.515625 -2.4375 7.1875 -1.597656 6.53125 -0.953125 C 5.875 -0.316406 5.015625 0 3.953125 0 L 0.59375 0 L 0.59375 -0.09375 L 0.71875 -0.09375 C 0.894531 -0.09375 1.039062 -0.15625 1.15625 -0.28125 C 1.28125 -0.40625 1.347656 -0.550781 1.359375 -0.71875 L 1.359375 -6.28125 C 1.359375 -6.4375 1.289062 -6.566406 1.15625 -6.671875 C 1.03125 -6.785156 0.882812 -6.84375 0.71875 -6.84375 L 0.609375 -6.84375 L 0.59375 -6.9375 Z M 2 -6.640625 L 2 -0.296875 L 3.953125 -0.296875 C 4.515625 -0.296875 5.007812 -0.425781 5.4375 -0.6875 C 5.863281 -0.957031 6.191406 -1.332031 6.421875 -1.8125 C 6.660156 -2.289062 6.78125 -2.84375 6.78125 -3.46875 C 6.78125 -4.425781 6.519531 -5.191406 6 -5.765625 C 5.476562 -6.347656 4.796875 -6.640625 3.953125 -6.640625 Z M 2 -6.640625 "/></g></g></g><g fill="#000000" fill-opacity="1"><g transform="translate(124.089782, 22.731527)"><g><path d="M 0.71875 -0.09375 C 0.894531 -0.09375 1.039062 -0.15625 1.15625 -0.28125 C 1.28125 -0.40625 1.347656 -0.550781 1.359375 -0.71875 L 1.359375 -6.28125 C 1.335938 -6.4375 1.265625 -6.566406 1.140625 -6.671875 C 1.023438 -6.785156 0.882812 -6.84375 0.71875 -6.84375 L 0.609375 -6.84375 L 0.59375 -6.9375 L 3.5 -6.9375 C 3.707031 -6.9375 3.929688 -6.957031 4.171875 -7 C 4.410156 -7.039062 4.582031 -7.082031 4.6875 -7.125 L 4.6875 -5.875 L 4.578125 -5.875 L 4.578125 -6.046875 C 4.578125 -6.210938 4.519531 -6.347656 4.40625 -6.453125 C 4.300781 -6.566406 4.175781 -6.628906 4.03125 -6.640625 L 2 -6.640625 L 2 -3.578125 L 3.6875 -3.578125 C 3.8125 -3.578125 3.921875 -3.625 4.015625 -3.71875 C 4.109375 -3.8125 4.15625 -3.925781 4.15625 -4.0625 L 4.15625 -4.203125 L 4.25 -4.203125 L 4.25 -2.640625 L 4.15625 -2.640625 L 4.15625 -2.78125 C 4.15625 -2.914062 4.109375 -3.03125 4.015625 -3.125 C 3.929688 -3.21875 3.820312 -3.269531 3.6875 -3.28125 L 2 -3.28125 L 2 -0.3125 L 3.421875 -0.3125 C 3.910156 -0.3125 4.285156 -0.421875 4.546875 -0.640625 C 4.804688 -0.859375 5.019531 -1.179688 5.1875 -1.609375 L 5.28125 -1.609375 L 4.71875 0 L 0.59375 0 L 0.59375 -0.09375 Z M 0.71875 -0.09375 "/></g></g></g><g fill="#000000" fill-opacity="1"><g transform="translate(134.77718, 22.731527)"><g><path d="M 0.609375 -0.40625 C 0.585938 -0.5 0.578125 -0.675781 0.578125 -0.9375 C 0.578125 -1.207031 0.625 -1.488281 0.71875 -1.78125 L 0.8125 -1.78125 C 0.800781 -1.707031 0.796875 -1.632812 0.796875 -1.5625 C 0.796875 -1.164062 0.914062 -0.832031 1.15625 -0.5625 C 1.40625 -0.289062 1.734375 -0.15625 2.140625 -0.15625 C 2.554688 -0.15625 2.898438 -0.28125 3.171875 -0.53125 C 3.441406 -0.78125 3.578125 -1.09375 3.578125 -1.46875 C 3.578125 -1.851562 3.445312 -2.164062 3.1875 -2.40625 L 1.28125 -4.171875 C 0.925781 -4.503906 0.75 -4.90625 0.75 -5.375 C 0.75 -5.84375 0.90625 -6.242188 1.21875 -6.578125 C 1.53125 -6.910156 1.953125 -7.078125 2.484375 -7.078125 C 2.742188 -7.078125 3.03125 -7.046875 3.34375 -6.984375 L 3.734375 -6.984375 L 3.734375 -5.765625 L 3.640625 -5.765625 C 3.640625 -6.078125 3.53125 -6.320312 3.3125 -6.5 C 3.101562 -6.6875 2.828125 -6.78125 2.484375 -6.78125 C 2.148438 -6.78125 1.867188 -6.664062 1.640625 -6.4375 C 1.410156 -6.21875 1.296875 -5.9375 1.296875 -5.59375 C 1.296875 -5.257812 1.429688 -4.972656 1.703125 -4.734375 L 3.65625 -2.921875 C 3.976562 -2.617188 4.140625 -2.203125 4.140625 -1.671875 C 4.140625 -1.148438 3.972656 -0.71875 3.640625 -0.375 C 3.304688 -0.03125 2.859375 0.140625 2.296875 0.140625 C 2.003906 0.140625 1.691406 0.09375 1.359375 0 C 1.035156 -0.0820312 0.785156 -0.21875 0.609375 -0.40625 Z M 0.609375 -0.40625 "/></g></g></g><g clip-path="url(#4b8d1a3a4a)"><g clip-path="url(#b0efaaa4b5)"><g clip-path="url(#abbed7f053)"><path fill="#000000" d="M 31.410156 12.933594 C 26.386719 19.550781 22.277344 26.421875 19.179688 33.628906 C 18.191406 35.925781 19.121094 36.550781 20.726562 34.609375 C 26.539062 27.597656 30.882812 20.753906 34.191406 14.375 C 34.578125 14.175781 34.929688 13.921875 35.179688 13.339844 C 35.671875 12.167969 36.375 10.878906 36.660156 9.789062 C 36.757812 9.425781 36.605469 9.265625 36.558594 9.03125 C 38.03125 8.835938 39.28125 7.503906 39.875 6.125 C 40.992188 3.53125 40.011719 1.621094 38.144531 0.0507812 C 38.3125 1.550781 37.671875 2.734375 36.203125 3.835938 C 34.304688 5.253906 34.03125 6.84375 34.894531 8.300781 C 34.632812 8.328125 34.332031 8.398438 33.910156 8.894531 C 33.238281 9.683594 32.566406 10.480469 31.804688 11.503906 C 31.324219 12.152344 31.351562 12.574219 31.410156 12.933594 Z M 32.417969 13.730469 C 32.816406 13.238281 33.71875 13.707031 33.394531 14.355469 C 30.105469 20.910156 25.800781 27.128906 21.039062 33.3125 C 19.917969 34.773438 19.933594 33.925781 20.441406 32.90625 C 23.859375 26.050781 27.734375 19.550781 32.417969 13.730469 Z M 32.941406 12.699219 C 32.777344 12.632812 32.730469 12.414062 32.917969 12.101562 C 33.546875 11.058594 34.195312 10.199219 34.96875 9.316406 C 35.523438 8.679688 36.226562 9.265625 35.96875 9.945312 C 35.570312 10.988281 34.980469 12.054688 34.300781 13.101562 C 34.171875 13.300781 33.898438 13.300781 33.667969 13.144531 C 33.429688 12.984375 33.210938 12.808594 32.941406 12.699219 Z M 35.46875 7.675781 C 35.199219 6.828125 35.273438 5.925781 36.554688 4.800781 C 37.84375 3.671875 38.433594 2.664062 38.882812 1.6875 C 39.882812 3.738281 39.253906 5.960938 37.203125 8.019531 C 36.832031 8.394531 36.519531 8.121094 36.808594 7.730469 C 37.972656 6.148438 38.398438 4.976562 38.558594 3.800781 C 38 5.148438 37.347656 6.472656 36.042969 7.617188 C 36.167969 6.628906 36.621094 5.769531 37.167969 4.945312 C 36.355469 5.613281 35.722656 6.453125 35.46875 7.675781 Z M 35.46875 7.675781 " fill-opacity="1" fill-rule="evenodd"/></g></g></g><g fill="#000000" fill-opacity="1"><g transform="translate(42.38289, 28.335725)"><g><path d="M 1.171875 -15.3125 L 12.9375 -9.71875 L 12.9375 -8.40625 L 1.171875 -2.8125 L 1.171875 -4.21875 L 11.171875 -9.078125 L 1.171875 -13.90625 Z M 1.171875 -15.3125 "/></g></g></g><g fill="#000000" fill-opacity="1"><g transform="translate(0.317171, 27.029465)"><g><path d="M 12.9375 -15.3125 L 12.9375 -13.90625 L 2.890625 -9.078125 L 12.9375 -4.21875 L 12.9375 -2.8125 L 1.171875 -8.40625 L 1.171875 -9.71875 Z M 12.9375 -15.3125 "/></g></g></g></svg>